<?xml version="1.0" encoding="utf-8" standalone="no"?>
<!DOCTYPE svg PUBLIC "-//W3C//DTD SVG 1.1//EN"
  "http://www.w3.org/Graphics/SVG/1.1/DTD/svg11.dtd">
<svg xmlns:xlink="http://www.w3.org/1999/xlink" width="723.178125pt" height="312.153906pt" viewBox="0 0 723.178125 312.153906" xmlns="http://www.w3.org/2000/svg" version="1.1">
 <metadata>
  <rdf:RDF xmlns:dc="http://purl.org/dc/elements/1.1/" xmlns:cc="http://creativecommons.org/ns#" xmlns:rdf="http://www.w3.org/1999/02/22-rdf-syntax-ns#">
   <cc:Work>
    <dc:type rdf:resource="http://purl.org/dc/dcmitype/StillImage"/>
    <dc:date>2026-07-07T15:43:59.980356</dc:date>
    <dc:format>image/svg+xml</dc:format>
    <dc:creator>
     <cc:Agent>
      <dc:title>Matplotlib v3.11.0, https://matplotlib.org/</dc:title>
     </cc:Agent>
    </dc:creator>
   </cc:Work>
  </rdf:RDF>
 </metadata>
 <defs>
  <style type="text/css">*{stroke-linejoin: round; stroke-linecap: butt}</style>
 </defs>
 <g id="figure_1">
  <g id="patch_1">
   <path d="M 0 312.153906 
L 723.178125 312.153906 
L 723.178125 0 
L 0 0 
z
" style="fill: #ffffff"/>
  </g>
  <g id="axes_1">
   <g id="patch_2">
    <path d="M 204.234375 272.278125 
L 706.434375 272.278125 
L 706.434375 22.798125 
L 204.234375 22.798125 
z
" style="fill: #ffffff"/>
   </g>
   <g id="patch_3">
    <path d="M 204.234375 260.938125 
L 261.725284 260.938125 
L 261.725284 229.655366 
L 204.234375 229.655366 
z
" clip-path="url(#pb8791a7206)" style="fill: #404040; stroke: #000000; stroke-linejoin: miter"/>
   </g>
   <g id="patch_4">
    <path d="M 204.234375 221.834677 
L 294.954375 221.834677 
L 294.954375 190.551918 
L 204.234375 190.551918 
z
" clip-path="url(#pb8791a7206)" style="fill: #404040; stroke: #000000; stroke-linejoin: miter"/>
   </g>
   <g id="patch_5">
    <path d="M 204.234375 182.731228 
L 321.740782 182.731228 
L 321.740782 151.44847 
L 204.234375 151.44847 
z
" clip-path="url(#pb8791a7206)" style="fill: #404040; stroke: #000000; stroke-linejoin: miter"/>
   </g>
   <g id="patch_6">
    <path d="M 204.234375 143.62778 
L 348.742067 143.62778 
L 348.742067 112.345022 
L 204.234375 112.345022 
z
" clip-path="url(#pb8791a7206)" style="fill: #404040; stroke: #000000; stroke-linejoin: miter"/>
   </g>
   <g id="patch_7">
    <path d="M 204.234375 104.524332 
L 404.882412 104.524332 
L 404.882412 73.241573 
L 204.234375 73.241573 
z
" clip-path="url(#pb8791a7206)" style="fill: #404040; stroke: #000000; stroke-linejoin: miter"/>
   </g>
   <g id="patch_8">
    <path d="M 204.234375 65.420884 
L 515.9897 65.420884 
L 515.9897 34.138125 
L 204.234375 34.138125 
z
" clip-path="url(#pb8791a7206)" style="fill: #404040; stroke: #000000; stroke-linejoin: miter"/>
   </g>
   <g id="patch_9">
    <path d="M 261.725284 260.938125 
L 554.252557 260.938125 
L 554.252557 229.655366 
L 261.725284 229.655366 
z
" clip-path="url(#pb8791a7206)" style="fill: #999999; stroke: #000000; stroke-linejoin: miter"/>
   </g>
   <g id="patch_10">
    <path d="M 294.954375 221.834677 
L 476.394375 221.834677 
L 476.394375 190.551918 
L 294.954375 190.551918 
z
" clip-path="url(#pb8791a7206)" style="fill: #999999; stroke: #000000; stroke-linejoin: miter"/>
   </g>
   <g id="patch_11">
    <path d="M 321.740782 182.731228 
L 569.343567 182.731228 
L 569.343567 151.44847 
L 321.740782 151.44847 
z
" clip-path="url(#pb8791a7206)" style="fill: #999999; stroke: #000000; stroke-linejoin: miter"/>
   </g>
   <g id="patch_12">
    <path d="M 348.742067 143.62778 
L 594.834375 143.62778 
L 594.834375 112.345022 
L 348.742067 112.345022 
z
" clip-path="url(#pb8791a7206)" style="fill: #999999; stroke: #000000; stroke-linejoin: miter"/>
   </g>
   <g id="patch_13">
    <path d="M 404.882412 104.524332 
L 612.48934 104.524332 
L 612.48934 73.241573 
L 404.882412 73.241573 
z
" clip-path="url(#pb8791a7206)" style="fill: #999999; stroke: #000000; stroke-linejoin: miter"/>
   </g>
   <g id="patch_14">
    <path d="M 515.9897 65.420884 
L 674.476193 65.420884 
L 674.476193 34.138125 
L 515.9897 34.138125 
z
" clip-path="url(#pb8791a7206)" style="fill: #999999; stroke: #000000; stroke-linejoin: miter"/>
   </g>
   <g id="patch_15">
    <path d="M 554.252557 260.938125 
L 706.434375 260.938125 
L 706.434375 229.655366 
L 554.252557 229.655366 
z
" clip-path="url(#pb8791a7206)" style="fill: url(#h7f8495f1d2); stroke: #000000; stroke-linejoin: miter"/>
   </g>
   <g id="patch_16">
    <path d="M 476.394375 221.834677 
L 706.434375 221.834677 
L 706.434375 190.551918 
L 476.394375 190.551918 
z
" clip-path="url(#pb8791a7206)" style="fill: url(#h7f8495f1d2); stroke: #000000; stroke-linejoin: miter"/>
   </g>
   <g id="patch_17">
    <path d="M 569.343567 182.731228 
L 706.434375 182.731228 
L 706.434375 151.44847 
L 569.343567 151.44847 
z
" clip-path="url(#pb8791a7206)" style="fill: url(#h7f8495f1d2); stroke: #000000; stroke-linejoin: miter"/>
   </g>
   <g id="patch_18">
    <path d="M 594.834375 143.62778 
L 706.434375 143.62778 
L 706.434375 112.345022 
L 594.834375 112.345022 
z
" clip-path="url(#pb8791a7206)" style="fill: url(#h7f8495f1d2); stroke: #000000; stroke-linejoin: miter"/>
   </g>
   <g id="patch_19">
    <path d="M 612.48934 104.524332 
L 706.434375 104.524332 
L 706.434375 73.241573 
L 612.48934 73.241573 
z
" clip-path="url(#pb8791a7206)" style="fill: url(#h7f8495f1d2); stroke: #000000; stroke-linejoin: miter"/>
   </g>
   <g id="patch_20">
    <path d="M 674.476193 65.420884 
L 706.434375 65.420884 
L 706.434375 34.138125 
L 674.476193 34.138125 
z
" clip-path="url(#pb8791a7206)" style="fill: url(#h7f8495f1d2); stroke: #000000; stroke-linejoin: miter"/>
   </g>
   <g id="matplotlib.axis_1">
    <g id="xtick_1">
     <g id="line2d_1">
      <defs>
       <path id="m687dfd6833" d="M 0 0 
L 0 3.5 
" style="stroke: #000000; stroke-width: 0.8"/>
      </defs>
      <g>
       <use xlink:href="#m687dfd6833" x="204.234375" y="272.278125" style="stroke: #000000; stroke-width: 0.8"/>
      </g>
     </g>
     <g id="text_1">
      <!-- 0 -->
      <g transform="translate(201.053125 286.875781) scale(0.1 -0.1)">
       <defs>
        <path id="DejaVuSerif-13" d="M 2034 219 
Q 2513 219 2750 744 
Q 2988 1269 2988 2328 
Q 2988 3391 2750 3916 
Q 2513 4441 2034 4441 
Q 1556 4441 1318 3916 
Q 1081 3391 1081 2328 
Q 1081 1269 1318 744 
Q 1556 219 2034 219 
z
M 2034 -91 
Q 1275 -91 848 546 
Q 422 1184 422 2328 
Q 422 3475 848 4112 
Q 1275 4750 2034 4750 
Q 2797 4750 3222 4112 
Q 3647 3475 3647 2328 
Q 3647 1184 3222 546 
Q 2797 -91 2034 -91 
z
" transform="scale(0.015625)"/>
       </defs>
       <use xlink:href="#DejaVuSerif-13"/>
      </g>
     </g>
    </g>
    <g id="xtick_2">
     <g id="line2d_2">
      <g>
       <use xlink:href="#m687dfd6833" x="304.674375" y="272.278125" style="stroke: #000000; stroke-width: 0.8"/>
      </g>
     </g>
     <g id="text_2">
      <!-- 20 -->
      <g transform="translate(298.311875 286.875781) scale(0.1 -0.1)">
       <defs>
        <path id="DejaVuSerif-15" d="M 819 3553 
L 469 3553 
L 469 4384 
Q 803 4563 1142 4656 
Q 1481 4750 1806 4750 
Q 2534 4750 2956 4397 
Q 3378 4044 3378 3438 
Q 3378 2753 2422 1800 
Q 2347 1728 2309 1691 
L 1131 513 
L 3078 513 
L 3078 1088 
L 3444 1088 
L 3444 0 
L 434 0 
L 434 341 
L 1850 1753 
Q 2319 2222 2519 2614 
Q 2719 3006 2719 3438 
Q 2719 3909 2473 4175 
Q 2228 4441 1797 4441 
Q 1350 4441 1106 4219 
Q 863 3997 819 3553 
z
" transform="scale(0.015625)"/>
       </defs>
       <use xlink:href="#DejaVuSerif-15"/>
       <use xlink:href="#DejaVuSerif-13" transform="translate(63.625 0)"/>
      </g>
     </g>
    </g>
    <g id="xtick_3">
     <g id="line2d_3">
      <g>
       <use xlink:href="#m687dfd6833" x="405.114375" y="272.278125" style="stroke: #000000; stroke-width: 0.8"/>
      </g>
     </g>
     <g id="text_3">
      <!-- 40 -->
      <g transform="translate(398.751875 286.875781) scale(0.1 -0.1)">
       <defs>
        <path id="DejaVuSerif-17" d="M 2234 1581 
L 2234 4063 
L 641 1581 
L 2234 1581 
z
M 3609 0 
L 1484 0 
L 1484 331 
L 2234 331 
L 2234 1247 
L 197 1247 
L 197 1588 
L 2241 4750 
L 2859 4750 
L 2859 1581 
L 3750 1581 
L 3750 1247 
L 2859 1247 
L 2859 331 
L 3609 331 
L 3609 0 
z
" transform="scale(0.015625)"/>
       </defs>
       <use xlink:href="#DejaVuSerif-17"/>
       <use xlink:href="#DejaVuSerif-13" transform="translate(63.625 0)"/>
      </g>
     </g>
    </g>
    <g id="xtick_4">
     <g id="line2d_4">
      <g>
       <use xlink:href="#m687dfd6833" x="505.554375" y="272.278125" style="stroke: #000000; stroke-width: 0.8"/>
      </g>
     </g>
     <g id="text_4">
      <!-- 60 -->
      <g transform="translate(499.191875 286.875781) scale(0.1 -0.1)">
       <defs>
        <path id="DejaVuSerif-19" d="M 2094 219 
Q 2534 219 2771 542 
Q 3009 866 3009 1472 
Q 3009 2078 2771 2401 
Q 2534 2725 2094 2725 
Q 1647 2725 1412 2412 
Q 1178 2100 1178 1509 
Q 1178 888 1415 553 
Q 1653 219 2094 219 
z
M 1075 2569 
Q 1288 2803 1556 2918 
Q 1825 3034 2163 3034 
Q 2859 3034 3264 2615 
Q 3669 2197 3669 1472 
Q 3669 763 3233 336 
Q 2797 -91 2069 -91 
Q 1278 -91 853 498 
Q 428 1088 428 2181 
Q 428 3406 931 4078 
Q 1434 4750 2350 4750 
Q 2597 4750 2869 4703 
Q 3141 4656 3425 4563 
L 3425 3794 
L 3072 3794 
Q 3034 4109 2831 4275 
Q 2628 4441 2284 4441 
Q 1678 4441 1381 3981 
Q 1084 3522 1075 2569 
z
" transform="scale(0.015625)"/>
       </defs>
       <use xlink:href="#DejaVuSerif-19"/>
       <use xlink:href="#DejaVuSerif-13" transform="translate(63.625 0)"/>
      </g>
     </g>
    </g>
    <g id="xtick_5">
     <g id="line2d_5">
      <g>
       <use xlink:href="#m687dfd6833" x="605.994375" y="272.278125" style="stroke: #000000; stroke-width: 0.8"/>
      </g>
     </g>
     <g id="text_5">
      <!-- 80 -->
      <g transform="translate(599.631875 286.875781) scale(0.1 -0.1)">
       <defs>
        <path id="DejaVuSerif-1b" d="M 2981 1275 
Q 2981 1775 2732 2051 
Q 2484 2328 2034 2328 
Q 1584 2328 1336 2051 
Q 1088 1775 1088 1275 
Q 1088 772 1336 495 
Q 1584 219 2034 219 
Q 2484 219 2732 495 
Q 2981 772 2981 1275 
z
M 2853 3541 
Q 2853 3966 2637 4203 
Q 2422 4441 2034 4441 
Q 1650 4441 1433 4203 
Q 1216 3966 1216 3541 
Q 1216 3113 1433 2875 
Q 1650 2638 2034 2638 
Q 2422 2638 2637 2875 
Q 2853 3113 2853 3541 
z
M 2516 2484 
Q 3047 2413 3344 2092 
Q 3641 1772 3641 1275 
Q 3641 619 3225 264 
Q 2809 -91 2034 -91 
Q 1263 -91 845 264 
Q 428 619 428 1275 
Q 428 1772 725 2092 
Q 1022 2413 1556 2484 
Q 1084 2569 832 2842 
Q 581 3116 581 3541 
Q 581 4103 968 4426 
Q 1356 4750 2034 4750 
Q 2713 4750 3100 4426 
Q 3488 4103 3488 3541 
Q 3488 3116 3236 2842 
Q 2984 2569 2516 2484 
z
" transform="scale(0.015625)"/>
       </defs>
       <use xlink:href="#DejaVuSerif-1b"/>
       <use xlink:href="#DejaVuSerif-13" transform="translate(63.625 0)"/>
      </g>
     </g>
    </g>
    <g id="xtick_6">
     <g id="line2d_6">
      <g>
       <use xlink:href="#m687dfd6833" x="706.434375" y="272.278125" style="stroke: #000000; stroke-width: 0.8"/>
      </g>
     </g>
     <g id="text_6">
      <!-- 100 -->
      <g transform="translate(696.890625 286.875781) scale(0.1 -0.1)">
       <defs>
        <path id="DejaVuSerif-14" d="M 909 0 
L 909 331 
L 1722 331 
L 1722 4213 
L 781 3603 
L 781 4013 
L 1919 4750 
L 2350 4750 
L 2350 331 
L 3163 331 
L 3163 0 
L 909 0 
z
" transform="scale(0.015625)"/>
       </defs>
       <use xlink:href="#DejaVuSerif-14"/>
       <use xlink:href="#DejaVuSerif-13" transform="translate(63.625 0)"/>
       <use xlink:href="#DejaVuSerif-13" transform="translate(127.25 0)"/>
      </g>
     </g>
    </g>
    <g id="text_7">
     <!-- Répartition des ménages ayant DÉJÀ acheté via cette forme (%) -->
     <g transform="translate(292.967188 302.551562) scale(0.1 -0.1)">
      <defs>
       <path id="DejaVuSerif-35" d="M 3066 2316 
Q 3284 2256 3442 2114 
Q 3600 1972 3725 1716 
L 4403 331 
L 4972 331 
L 4972 0 
L 3872 0 
L 3144 1484 
Q 2934 1916 2759 2042 
Q 2584 2169 2278 2169 
L 1581 2169 
L 1581 331 
L 2241 331 
L 2241 0 
L 353 0 
L 353 331 
L 947 331 
L 947 4331 
L 353 4331 
L 353 4666 
L 2719 4666 
Q 3400 4666 3770 4341 
Q 4141 4016 4141 3419 
Q 4141 2938 3870 2661 
Q 3600 2384 3066 2316 
z
M 1581 2503 
L 2503 2503 
Q 2975 2503 3200 2726 
Q 3425 2950 3425 3419 
Q 3425 3888 3200 4109 
Q 2975 4331 2503 4331 
L 1581 4331 
L 1581 2503 
z
" transform="scale(0.015625)"/>
       <path id="DejaVuSerif-ab" d="M 3469 1600 
L 991 1600 
L 991 1575 
Q 991 903 1244 561 
Q 1497 219 1991 219 
Q 2369 219 2611 417 
Q 2853 616 2950 1006 
L 3413 1006 
Q 3275 459 2904 184 
Q 2534 -91 1931 -91 
Q 1203 -91 761 389 
Q 319 869 319 1663 
Q 319 2450 753 2931 
Q 1188 3413 1894 3413 
Q 2647 3413 3050 2948 
Q 3453 2484 3469 1600 
z
M 2791 1931 
Q 2772 2513 2545 2808 
Q 2319 3103 1894 3103 
Q 1497 3103 1269 2806 
Q 1041 2509 991 1931 
L 2791 1931 
z
M 2328 5119 
L 2950 5119 
L 1888 3944 
L 1522 3944 
L 2328 5119 
z
" transform="scale(0.015625)"/>
       <path id="DejaVuSerif-53" d="M 1313 1825 
L 1313 1497 
Q 1313 897 1542 583 
Q 1772 269 2209 269 
Q 2650 269 2876 622 
Q 3103 975 3103 1663 
Q 3103 2353 2876 2703 
Q 2650 3053 2209 3053 
Q 1772 3053 1542 2737 
Q 1313 2422 1313 1825 
z
M 738 2988 
L 184 2988 
L 184 3322 
L 1313 3322 
L 1313 2803 
Q 1481 3116 1742 3264 
Q 2003 3413 2388 3413 
Q 3000 3413 3387 2928 
Q 3775 2444 3775 1663 
Q 3775 881 3387 395 
Q 3000 -91 2388 -91 
Q 2003 -91 1742 57 
Q 1481 206 1313 519 
L 1313 -997 
L 1856 -997 
L 1856 -1331 
L 184 -1331 
L 184 -997 
L 738 -997 
L 738 2988 
z
" transform="scale(0.015625)"/>
       <path id="DejaVuSerif-44" d="M 2547 1044 
L 2547 1747 
L 1806 1747 
Q 1378 1747 1168 1562 
Q 959 1378 959 997 
Q 959 650 1171 447 
Q 1384 244 1747 244 
Q 2106 244 2326 466 
Q 2547 688 2547 1044 
z
M 3122 2075 
L 3122 331 
L 3634 331 
L 3634 0 
L 2547 0 
L 2547 359 
Q 2356 128 2106 18 
Q 1856 -91 1522 -91 
Q 969 -91 644 203 
Q 319 497 319 997 
Q 319 1513 691 1797 
Q 1063 2081 1741 2081 
L 2547 2081 
L 2547 2309 
Q 2547 2688 2317 2895 
Q 2088 3103 1672 3103 
Q 1328 3103 1125 2947 
Q 922 2791 872 2484 
L 575 2484 
L 575 3156 
Q 875 3284 1158 3348 
Q 1441 3413 1709 3413 
Q 2400 3413 2761 3070 
Q 3122 2728 3122 2075 
z
" transform="scale(0.015625)"/>
       <path id="DejaVuSerif-55" d="M 3059 3328 
L 3059 2497 
L 2728 2497 
Q 2713 2744 2591 2866 
Q 2469 2988 2234 2988 
Q 1809 2988 1582 2694 
Q 1356 2400 1356 1850 
L 1356 331 
L 2022 331 
L 2022 0 
L 263 0 
L 263 331 
L 781 331 
L 781 2994 
L 231 2994 
L 231 3322 
L 1356 3322 
L 1356 2731 
Q 1525 3078 1790 3245 
Q 2056 3413 2438 3413 
Q 2578 3413 2733 3391 
Q 2888 3369 3059 3328 
z
" transform="scale(0.015625)"/>
       <path id="DejaVuSerif-57" d="M 691 2988 
L 184 2988 
L 184 3322 
L 691 3322 
L 691 4353 
L 1269 4353 
L 1269 3322 
L 2350 3322 
L 2350 2988 
L 1269 2988 
L 1269 878 
Q 1269 456 1350 337 
Q 1431 219 1650 219 
Q 1875 219 1978 351 
Q 2081 484 2088 781 
L 2522 781 
Q 2497 328 2275 118 
Q 2053 -91 1600 -91 
Q 1103 -91 897 129 
Q 691 350 691 878 
L 691 2988 
z
" transform="scale(0.015625)"/>
       <path id="DejaVuSerif-4c" d="M 622 4353 
Q 622 4497 726 4603 
Q 831 4709 978 4709 
Q 1122 4709 1226 4603 
Q 1331 4497 1331 4353 
Q 1331 4206 1228 4103 
Q 1125 4000 978 4000 
Q 831 4000 726 4103 
Q 622 4206 622 4353 
z
M 1356 331 
L 1900 331 
L 1900 0 
L 231 0 
L 231 331 
L 781 331 
L 781 2988 
L 231 2988 
L 231 3322 
L 1356 3322 
L 1356 331 
z
" transform="scale(0.015625)"/>
       <path id="DejaVuSerif-52" d="M 1925 219 
Q 2388 219 2623 584 
Q 2859 950 2859 1663 
Q 2859 2375 2623 2739 
Q 2388 3103 1925 3103 
Q 1463 3103 1227 2739 
Q 991 2375 991 1663 
Q 991 950 1228 584 
Q 1466 219 1925 219 
z
M 1925 -91 
Q 1200 -91 759 389 
Q 319 869 319 1663 
Q 319 2456 758 2934 
Q 1197 3413 1925 3413 
Q 2653 3413 3092 2934 
Q 3531 2456 3531 1663 
Q 3531 869 3092 389 
Q 2653 -91 1925 -91 
z
" transform="scale(0.015625)"/>
       <path id="DejaVuSerif-51" d="M 263 0 
L 263 331 
L 781 331 
L 781 2988 
L 231 2988 
L 231 3322 
L 1356 3322 
L 1356 2731 
Q 1516 3069 1770 3241 
Q 2025 3413 2363 3413 
Q 2913 3413 3172 3097 
Q 3431 2781 3431 2113 
L 3431 331 
L 3944 331 
L 3944 0 
L 2356 0 
L 2356 331 
L 2853 331 
L 2853 1931 
Q 2853 2541 2703 2767 
Q 2553 2994 2175 2994 
Q 1775 2994 1565 2701 
Q 1356 2409 1356 1850 
L 1356 331 
L 1856 331 
L 1856 0 
L 263 0 
z
" transform="scale(0.015625)"/>
       <path id="DejaVuSerif-3" transform="scale(0.015625)"/>
       <path id="DejaVuSerif-47" d="M 3359 331 
L 3909 331 
L 3909 0 
L 2784 0 
L 2784 519 
Q 2616 206 2355 57 
Q 2094 -91 1709 -91 
Q 1097 -91 708 395 
Q 319 881 319 1663 
Q 319 2444 706 2928 
Q 1094 3413 1709 3413 
Q 2094 3413 2355 3264 
Q 2616 3116 2784 2803 
L 2784 4531 
L 2241 4531 
L 2241 4863 
L 3359 4863 
L 3359 331 
z
M 2784 1497 
L 2784 1825 
Q 2784 2422 2554 2737 
Q 2325 3053 1888 3053 
Q 1444 3053 1217 2703 
Q 991 2353 991 1663 
Q 991 975 1217 622 
Q 1444 269 1888 269 
Q 2325 269 2554 583 
Q 2784 897 2784 1497 
z
" transform="scale(0.015625)"/>
       <path id="DejaVuSerif-48" d="M 3469 1600 
L 991 1600 
L 991 1575 
Q 991 903 1244 561 
Q 1497 219 1991 219 
Q 2369 219 2611 417 
Q 2853 616 2950 1006 
L 3413 1006 
Q 3275 459 2904 184 
Q 2534 -91 1931 -91 
Q 1203 -91 761 389 
Q 319 869 319 1663 
Q 319 2450 753 2931 
Q 1188 3413 1894 3413 
Q 2647 3413 3050 2948 
Q 3453 2484 3469 1600 
z
M 2791 1931 
Q 2772 2513 2545 2808 
Q 2319 3103 1894 3103 
Q 1497 3103 1269 2806 
Q 1041 2509 991 1931 
L 2791 1931 
z
" transform="scale(0.015625)"/>
       <path id="DejaVuSerif-56" d="M 359 184 
L 359 959 
L 691 959 
Q 703 588 923 403 
Q 1144 219 1575 219 
Q 1963 219 2166 364 
Q 2369 509 2369 788 
Q 2369 1006 2220 1140 
Q 2072 1275 1594 1428 
L 1178 1569 
Q 750 1706 558 1912 
Q 366 2119 366 2438 
Q 366 2894 700 3153 
Q 1034 3413 1625 3413 
Q 1888 3413 2178 3344 
Q 2469 3275 2778 3144 
L 2778 2419 
L 2447 2419 
Q 2434 2741 2221 2922 
Q 2009 3103 1644 3103 
Q 1281 3103 1095 2975 
Q 909 2847 909 2591 
Q 909 2381 1050 2254 
Q 1191 2128 1613 1997 
L 2069 1856 
Q 2541 1709 2748 1489 
Q 2956 1269 2956 922 
Q 2956 450 2595 179 
Q 2234 -91 1600 -91 
Q 1278 -91 972 -22 
Q 666 47 359 184 
z
" transform="scale(0.015625)"/>
       <path id="DejaVuSerif-50" d="M 3316 2675 
Q 3481 3041 3739 3227 
Q 3997 3413 4341 3413 
Q 4863 3413 5119 3089 
Q 5375 2766 5375 2113 
L 5375 331 
L 5894 331 
L 5894 0 
L 4300 0 
L 4300 331 
L 4800 331 
L 4800 2047 
Q 4800 2556 4650 2772 
Q 4500 2988 4153 2988 
Q 3769 2988 3567 2697 
Q 3366 2406 3366 1850 
L 3366 331 
L 3866 331 
L 3866 0 
L 2291 0 
L 2291 331 
L 2791 331 
L 2791 2069 
Q 2791 2566 2641 2777 
Q 2491 2988 2144 2988 
Q 1759 2988 1557 2697 
Q 1356 2406 1356 1850 
L 1356 331 
L 1856 331 
L 1856 0 
L 263 0 
L 263 331 
L 781 331 
L 781 2994 
L 231 2994 
L 231 3322 
L 1356 3322 
L 1356 2731 
Q 1516 3063 1762 3238 
Q 2009 3413 2322 3413 
Q 2709 3413 2968 3220 
Q 3228 3028 3316 2675 
z
" transform="scale(0.015625)"/>
       <path id="DejaVuSerif-4a" d="M 3359 2988 
L 3359 72 
Q 3359 -644 2965 -1033 
Q 2572 -1422 1844 -1422 
Q 1516 -1422 1216 -1362 
Q 916 -1303 641 -1184 
L 641 -488 
L 941 -488 
Q 997 -813 1206 -963 
Q 1416 -1113 1806 -1113 
Q 2313 -1113 2548 -827 
Q 2784 -541 2784 72 
L 2784 519 
Q 2616 206 2355 57 
Q 2094 -91 1709 -91 
Q 1097 -91 708 395 
Q 319 881 319 1663 
Q 319 2444 706 2928 
Q 1094 3413 1709 3413 
Q 2094 3413 2355 3264 
Q 2616 3116 2784 2803 
L 2784 3322 
L 3909 3322 
L 3909 2988 
L 3359 2988 
z
M 2784 1825 
Q 2784 2422 2554 2737 
Q 2325 3053 1888 3053 
Q 1444 3053 1217 2703 
Q 991 2353 991 1663 
Q 991 975 1217 622 
Q 1444 269 1888 269 
Q 2325 269 2554 583 
Q 2784 897 2784 1497 
L 2784 1825 
z
" transform="scale(0.015625)"/>
       <path id="DejaVuSerif-5c" d="M 1381 -609 
L 1600 -56 
L 359 2988 
L -19 2988 
L -19 3322 
L 1509 3322 
L 1509 2988 
L 978 2988 
L 1913 703 
L 2847 2988 
L 2350 2988 
L 2350 3322 
L 3597 3322 
L 3597 2988 
L 3225 2988 
L 1703 -750 
Q 1547 -1138 1356 -1280 
Q 1166 -1422 819 -1422 
Q 672 -1422 517 -1397 
Q 363 -1372 206 -1325 
L 206 -691 
L 500 -691 
Q 519 -903 608 -995 
Q 697 -1088 884 -1088 
Q 1056 -1088 1161 -992 
Q 1266 -897 1381 -609 
z
" transform="scale(0.015625)"/>
       <path id="DejaVuSerif-27" d="M 1581 331 
L 2163 331 
Q 3072 331 3558 850 
Q 4044 1369 4044 2338 
Q 4044 3306 3559 3818 
Q 3075 4331 2163 4331 
L 1581 4331 
L 1581 331 
z
M 353 0 
L 353 331 
L 947 331 
L 947 4331 
L 353 4331 
L 353 4666 
L 2209 4666 
Q 3416 4666 4089 4050 
Q 4763 3434 4763 2338 
Q 4763 1238 4088 619 
Q 3413 0 2209 0 
L 353 0 
z
" transform="scale(0.015625)"/>
       <path id="DejaVuSerif-8b" d="M 353 0 
L 353 331 
L 947 331 
L 947 4331 
L 353 4331 
L 353 4666 
L 4109 4666 
L 4109 3628 
L 3725 3628 
L 3725 4281 
L 1581 4281 
L 1581 2719 
L 3109 2719 
L 3109 3303 
L 3494 3303 
L 3494 1753 
L 3109 1753 
L 3109 2338 
L 1581 2338 
L 1581 384 
L 3775 384 
L 3775 1038 
L 4159 1038 
L 4159 0 
L 353 0 
z
M 2535 5935 
L 3150 5935 
L 2332 5110 
L 1966 5110 
L 2535 5935 
z
" transform="scale(0.015625)"/>
       <path id="DejaVuSerif-2d" d="M -538 -1119 
L -538 -384 
L -181 -384 
Q -172 -694 -34 -845 
Q 103 -997 378 -997 
Q 750 -997 897 -762 
Q 1044 -528 1044 153 
L 1044 4331 
L 319 4331 
L 319 4666 
L 2272 4666 
L 2272 4331 
L 1678 4331 
L 1678 128 
Q 1678 -644 1368 -987 
Q 1059 -1331 372 -1331 
Q 150 -1331 -79 -1278 
Q -309 -1225 -538 -1119 
z
" transform="scale(0.015625)"/>
       <path id="DejaVuSerif-82" d="M 1281 1691 
L 2994 1691 
L 2138 3909 
L 1281 1691 
z
M -38 0 
L -38 331 
L 372 331 
L 2034 4666 
L 2559 4666 
L 4225 331 
L 4684 331 
L 4684 0 
L 2988 0 
L 2988 331 
L 3506 331 
L 3116 1356 
L 1153 1356 
L 763 331 
L 1275 331 
L 1275 0 
L -38 0 
z
M 2090 5935 
L 2662 5110 
L 2296 5110 
L 1478 5935 
L 2090 5935 
z
" transform="scale(0.015625)"/>
       <path id="DejaVuSerif-46" d="M 3291 997 
Q 3169 466 2822 187 
Q 2475 -91 1925 -91 
Q 1200 -91 759 389 
Q 319 869 319 1663 
Q 319 2459 759 2936 
Q 1200 3413 1925 3413 
Q 2241 3413 2553 3339 
Q 2866 3266 3181 3116 
L 3181 2266 
L 2847 2266 
Q 2781 2703 2561 2903 
Q 2341 3103 1931 3103 
Q 1466 3103 1228 2742 
Q 991 2381 991 1663 
Q 991 944 1227 581 
Q 1463 219 1931 219 
Q 2303 219 2525 412 
Q 2747 606 2828 997 
L 3291 997 
z
" transform="scale(0.015625)"/>
       <path id="DejaVuSerif-4b" d="M 263 0 
L 263 331 
L 781 331 
L 781 4531 
L 231 4531 
L 231 4863 
L 1356 4863 
L 1356 2731 
Q 1516 3069 1770 3241 
Q 2025 3413 2363 3413 
Q 2913 3413 3172 3097 
Q 3431 2781 3431 2113 
L 3431 331 
L 3944 331 
L 3944 0 
L 2356 0 
L 2356 331 
L 2853 331 
L 2853 1931 
Q 2853 2541 2704 2764 
Q 2556 2988 2175 2988 
Q 1775 2988 1565 2697 
Q 1356 2406 1356 1850 
L 1356 331 
L 1856 331 
L 1856 0 
L 263 0 
z
" transform="scale(0.015625)"/>
       <path id="DejaVuSerif-59" d="M 1581 0 
L 359 2988 
L -19 2988 
L -19 3322 
L 1509 3322 
L 1509 2988 
L 978 2988 
L 1913 703 
L 2847 2988 
L 2350 2988 
L 2350 3322 
L 3597 3322 
L 3597 2988 
L 3225 2988 
L 2003 0 
L 1581 0 
z
" transform="scale(0.015625)"/>
       <path id="DejaVuSerif-49" d="M 2753 4078 
L 2450 4078 
Q 2447 4313 2317 4434 
Q 2188 4556 1941 4556 
Q 1619 4556 1487 4379 
Q 1356 4203 1356 3750 
L 1356 3322 
L 2284 3322 
L 2284 2988 
L 1356 2988 
L 1356 331 
L 2094 331 
L 2094 0 
L 231 0 
L 231 331 
L 781 331 
L 781 2988 
L 231 2988 
L 231 3322 
L 781 3322 
L 781 3738 
Q 781 4294 1070 4578 
Q 1359 4863 1919 4863 
Q 2128 4863 2337 4825 
Q 2547 4788 2753 4709 
L 2753 4078 
z
" transform="scale(0.015625)"/>
       <path id="DejaVuSerif-b" d="M 2041 -997 
Q 1281 -656 893 83 
Q 506 822 506 1931 
Q 506 3044 893 3783 
Q 1281 4522 2041 4863 
L 2041 4556 
Q 1559 4225 1350 3623 
Q 1141 3022 1141 1931 
Q 1141 844 1350 242 
Q 1559 -359 2041 -691 
L 2041 -997 
z
" transform="scale(0.015625)"/>
       <path id="DejaVuSerif-8" d="M 1434 4459 
Q 1159 4459 1004 4200 
Q 850 3941 850 3475 
Q 850 3016 1008 2753 
Q 1166 2491 1434 2491 
Q 1700 2491 1854 2752 
Q 2009 3013 2009 3475 
Q 2009 3938 1854 4198 
Q 1700 4459 1434 4459 
z
M 4653 2169 
Q 4381 2169 4226 1906 
Q 4072 1644 4072 1178 
Q 4072 719 4228 458 
Q 4384 197 4653 197 
Q 4922 197 5075 458 
Q 5228 719 5228 1178 
Q 5228 1641 5073 1905 
Q 4919 2169 4653 2169 
z
M 4653 2450 
Q 5147 2450 5437 2106 
Q 5728 1763 5728 1178 
Q 5728 594 5436 251 
Q 5144 -91 4653 -91 
Q 4153 -91 3862 251 
Q 3572 594 3572 1178 
Q 3572 1766 3864 2108 
Q 4156 2450 4653 2450 
z
M 4263 4750 
L 4738 4750 
L 1819 -91 
L 1344 -91 
L 4263 4750 
z
M 1428 4750 
Q 1922 4750 2215 4408 
Q 2509 4066 2509 3481 
Q 2509 2891 2217 2550 
Q 1925 2209 1428 2209 
Q 931 2209 642 2551 
Q 353 2894 353 3481 
Q 353 4063 643 4406 
Q 934 4750 1428 4750 
z
" transform="scale(0.015625)"/>
       <path id="DejaVuSerif-c" d="M 453 -997 
L 453 -691 
Q 934 -359 1145 242 
Q 1356 844 1356 1931 
Q 1356 3022 1145 3623 
Q 934 4225 453 4556 
L 453 4863 
Q 1216 4522 1603 3783 
Q 1991 3044 1991 1931 
Q 1991 822 1603 83 
Q 1216 -656 453 -997 
z
" transform="scale(0.015625)"/>
      </defs>
      <use xlink:href="#DejaVuSerif-35"/>
      <use xlink:href="#DejaVuSerif-ab" transform="translate(75.296875 0)"/>
      <use xlink:href="#DejaVuSerif-53" transform="translate(134.484375 0)"/>
      <use xlink:href="#DejaVuSerif-44" transform="translate(198.5 0)"/>
      <use xlink:href="#DejaVuSerif-55" transform="translate(258.125 0)"/>
      <use xlink:href="#DejaVuSerif-57" transform="translate(305.921875 0)"/>
      <use xlink:href="#DejaVuSerif-4c" transform="translate(346.109375 0)"/>
      <use xlink:href="#DejaVuSerif-57" transform="translate(378.09375 0)"/>
      <use xlink:href="#DejaVuSerif-4c" transform="translate(418.28125 0)"/>
      <use xlink:href="#DejaVuSerif-52" transform="translate(450.265625 0)"/>
      <use xlink:href="#DejaVuSerif-51" transform="translate(510.46875 0)"/>
      <use xlink:href="#DejaVuSerif-3" transform="translate(574.875 0)"/>
      <use xlink:href="#DejaVuSerif-47" transform="translate(606.65625 0)"/>
      <use xlink:href="#DejaVuSerif-48" transform="translate(670.671875 0)"/>
      <use xlink:href="#DejaVuSerif-56" transform="translate(729.859375 0)"/>
      <use xlink:href="#DejaVuSerif-3" transform="translate(781.171875 0)"/>
      <use xlink:href="#DejaVuSerif-50" transform="translate(812.953125 0)"/>
      <use xlink:href="#DejaVuSerif-ab" transform="translate(907.78125 0)"/>
      <use xlink:href="#DejaVuSerif-51" transform="translate(966.96875 0)"/>
      <use xlink:href="#DejaVuSerif-44" transform="translate(1031.375 0)"/>
      <use xlink:href="#DejaVuSerif-4a" transform="translate(1091 0)"/>
      <use xlink:href="#DejaVuSerif-48" transform="translate(1155.015625 0)"/>
      <use xlink:href="#DejaVuSerif-56" transform="translate(1214.203125 0)"/>
      <use xlink:href="#DejaVuSerif-3" transform="translate(1265.515625 0)"/>
      <use xlink:href="#DejaVuSerif-44" transform="translate(1297.296875 0)"/>
      <use xlink:href="#DejaVuSerif-5c" transform="translate(1356.921875 0)"/>
      <use xlink:href="#DejaVuSerif-44" transform="translate(1413.421875 0)"/>
      <use xlink:href="#DejaVuSerif-51" transform="translate(1473.046875 0)"/>
      <use xlink:href="#DejaVuSerif-57" transform="translate(1537.453125 0)"/>
      <use xlink:href="#DejaVuSerif-3" transform="translate(1577.640625 0)"/>
      <use xlink:href="#DejaVuSerif-27" transform="translate(1609.421875 0)"/>
      <use xlink:href="#DejaVuSerif-8b" transform="translate(1689.59375 0)"/>
      <use xlink:href="#DejaVuSerif-2d" transform="translate(1762.59375 0)"/>
      <use xlink:href="#DejaVuSerif-82" transform="translate(1802.6875 0)"/>
      <use xlink:href="#DejaVuSerif-3" transform="translate(1874.90625 0)"/>
      <use xlink:href="#DejaVuSerif-44" transform="translate(1906.6875 0)"/>
      <use xlink:href="#DejaVuSerif-46" transform="translate(1966.3125 0)"/>
      <use xlink:href="#DejaVuSerif-4b" transform="translate(2022.3125 0)"/>
      <use xlink:href="#DejaVuSerif-48" transform="translate(2086.71875 0)"/>
      <use xlink:href="#DejaVuSerif-57" transform="translate(2145.90625 0)"/>
      <use xlink:href="#DejaVuSerif-ab" transform="translate(2186.09375 0)"/>
      <use xlink:href="#DejaVuSerif-3" transform="translate(2245.28125 0)"/>
      <use xlink:href="#DejaVuSerif-59" transform="translate(2277.0625 0)"/>
      <use xlink:href="#DejaVuSerif-4c" transform="translate(2333.5625 0)"/>
      <use xlink:href="#DejaVuSerif-44" transform="translate(2365.546875 0)"/>
      <use xlink:href="#DejaVuSerif-3" transform="translate(2425.171875 0)"/>
      <use xlink:href="#DejaVuSerif-46" transform="translate(2456.953125 0)"/>
      <use xlink:href="#DejaVuSerif-48" transform="translate(2512.953125 0)"/>
      <use xlink:href="#DejaVuSerif-57" transform="translate(2572.140625 0)"/>
      <use xlink:href="#DejaVuSerif-57" transform="translate(2612.328125 0)"/>
      <use xlink:href="#DejaVuSerif-48" transform="translate(2652.515625 0)"/>
      <use xlink:href="#DejaVuSerif-3" transform="translate(2711.703125 0)"/>
      <use xlink:href="#DejaVuSerif-49" transform="translate(2743.484375 0)"/>
      <use xlink:href="#DejaVuSerif-52" transform="translate(2780.5 0)"/>
      <use xlink:href="#DejaVuSerif-55" transform="translate(2840.703125 0)"/>
      <use xlink:href="#DejaVuSerif-50" transform="translate(2888.5 0)"/>
      <use xlink:href="#DejaVuSerif-48" transform="translate(2983.328125 0)"/>
      <use xlink:href="#DejaVuSerif-3" transform="translate(3042.515625 0)"/>
      <use xlink:href="#DejaVuSerif-b" transform="translate(3074.296875 0)"/>
      <use xlink:href="#DejaVuSerif-8" transform="translate(3113.3125 0)"/>
      <use xlink:href="#DejaVuSerif-c" transform="translate(3208.328125 0)"/>
     </g>
    </g>
   </g>
   <g id="matplotlib.axis_2">
    <g id="ytick_1">
     <g id="line2d_7">
      <defs>
       <path id="m9ca7c6677f" d="M 0 0 
L -3.5 0 
" style="stroke: #000000; stroke-width: 0.8"/>
      </defs>
      <g>
       <use xlink:href="#m9ca7c6677f" x="204.234375" y="245.296746" style="stroke: #000000; stroke-width: 0.8"/>
      </g>
     </g>
     <g id="text_8">
      <!-- Foire / salon (n=297) -->
      <g transform="translate(89.557812 249.095964) scale(0.1 -0.1)">
       <defs>
        <path id="DejaVuSerif-29" d="M 353 0 
L 353 331 
L 947 331 
L 947 4331 
L 353 4331 
L 353 4666 
L 4172 4666 
L 4172 3628 
L 3788 3628 
L 3788 4281 
L 1581 4281 
L 1581 2719 
L 3175 2719 
L 3175 3303 
L 3559 3303 
L 3559 1753 
L 3175 1753 
L 3175 2338 
L 1581 2338 
L 1581 331 
L 2328 331 
L 2328 0 
L 353 0 
z
" transform="scale(0.015625)"/>
        <path id="DejaVuSerif-12" d="M 1656 4666 
L 2156 4666 
L 500 -594 
L 0 -594 
L 1656 4666 
z
" transform="scale(0.015625)"/>
        <path id="DejaVuSerif-4f" d="M 1313 331 
L 1856 331 
L 1856 0 
L 184 0 
L 184 331 
L 738 331 
L 738 4531 
L 184 4531 
L 184 4863 
L 1313 4863 
L 1313 331 
z
" transform="scale(0.015625)"/>
        <path id="DejaVuSerif-20" d="M 678 2894 
L 4684 2894 
L 4684 2394 
L 678 2394 
L 678 2894 
z
M 678 1619 
L 4684 1619 
L 4684 1119 
L 678 1119 
L 678 1619 
z
" transform="scale(0.015625)"/>
        <path id="DejaVuSerif-1c" d="M 2994 2091 
Q 2784 1856 2512 1740 
Q 2241 1625 1900 1625 
Q 1206 1625 804 2044 
Q 403 2463 403 3188 
Q 403 3897 839 4323 
Q 1275 4750 2003 4750 
Q 2794 4750 3217 4161 
Q 3641 3572 3641 2478 
Q 3641 1253 3137 581 
Q 2634 -91 1722 -91 
Q 1475 -91 1203 -44 
Q 931 3 647 97 
L 647 872 
L 997 872 
Q 1038 556 1241 387 
Q 1444 219 1784 219 
Q 2391 219 2687 676 
Q 2984 1134 2994 2091 
z
M 1978 4441 
Q 1534 4441 1298 4117 
Q 1063 3794 1063 3188 
Q 1063 2581 1298 2256 
Q 1534 1931 1978 1931 
Q 2422 1931 2658 2245 
Q 2894 2559 2894 3150 
Q 2894 3772 2656 4106 
Q 2419 4441 1978 4441 
z
" transform="scale(0.015625)"/>
        <path id="DejaVuSerif-1a" d="M 3609 4347 
L 1784 0 
L 1319 0 
L 3059 4153 
L 903 4153 
L 903 3578 
L 538 3578 
L 538 4666 
L 3609 4666 
L 3609 4347 
z
" transform="scale(0.015625)"/>
       </defs>
       <use xlink:href="#DejaVuSerif-29"/>
       <use xlink:href="#DejaVuSerif-52" transform="translate(63.921875 0)"/>
       <use xlink:href="#DejaVuSerif-4c" transform="translate(124.125 0)"/>
       <use xlink:href="#DejaVuSerif-55" transform="translate(156.109375 0)"/>
       <use xlink:href="#DejaVuSerif-48" transform="translate(203.90625 0)"/>
       <use xlink:href="#DejaVuSerif-3" transform="translate(263.09375 0)"/>
       <use xlink:href="#DejaVuSerif-12" transform="translate(294.875 0)"/>
       <use xlink:href="#DejaVuSerif-3" transform="translate(328.5625 0)"/>
       <use xlink:href="#DejaVuSerif-56" transform="translate(360.34375 0)"/>
       <use xlink:href="#DejaVuSerif-44" transform="translate(411.65625 0)"/>
       <use xlink:href="#DejaVuSerif-4f" transform="translate(471.28125 0)"/>
       <use xlink:href="#DejaVuSerif-52" transform="translate(503.265625 0)"/>
       <use xlink:href="#DejaVuSerif-51" transform="translate(563.46875 0)"/>
       <use xlink:href="#DejaVuSerif-3" transform="translate(627.875 0)"/>
       <use xlink:href="#DejaVuSerif-b" transform="translate(659.65625 0)"/>
       <use xlink:href="#DejaVuSerif-51" transform="translate(698.671875 0)"/>
       <use xlink:href="#DejaVuSerif-20" transform="translate(763.078125 0)"/>
       <use xlink:href="#DejaVuSerif-15" transform="translate(846.875 0)"/>
       <use xlink:href="#DejaVuSerif-1c" transform="translate(910.5 0)"/>
       <use xlink:href="#DejaVuSerif-1a" transform="translate(974.125 0)"/>
       <use xlink:href="#DejaVuSerif-c" transform="translate(1037.75 0)"/>
      </g>
     </g>
    </g>
    <g id="ytick_2">
     <g id="line2d_8">
      <g>
       <use xlink:href="#m9ca7c6677f" x="204.234375" y="206.193297" style="stroke: #000000; stroke-width: 0.8"/>
      </g>
     </g>
     <g id="text_9">
      <!-- Panier en ligne (La Ruche…) (n=155) -->
      <g transform="translate(7.2 209.992516) scale(0.1 -0.1)">
       <defs>
        <path id="DejaVuSerif-33" d="M 1581 2375 
L 2406 2375 
Q 2872 2375 3115 2626 
Q 3359 2878 3359 3353 
Q 3359 3831 3115 4081 
Q 2872 4331 2406 4331 
L 1581 4331 
L 1581 2375 
z
M 353 0 
L 353 331 
L 947 331 
L 947 4331 
L 353 4331 
L 353 4666 
L 2559 4666 
Q 3259 4666 3668 4311 
Q 4078 3956 4078 3353 
Q 4078 2753 3668 2397 
Q 3259 2041 2559 2041 
L 1581 2041 
L 1581 331 
L 2303 331 
L 2303 0 
L 353 0 
z
" transform="scale(0.015625)"/>
        <path id="DejaVuSerif-2f" d="M 353 0 
L 353 331 
L 947 331 
L 947 4331 
L 353 4331 
L 353 4666 
L 2175 4666 
L 2175 4331 
L 1581 4331 
L 1581 384 
L 3713 384 
L 3713 1166 
L 4097 1166 
L 4097 0 
L 353 0 
z
" transform="scale(0.015625)"/>
        <path id="DejaVuSerif-58" d="M 2266 3322 
L 3341 3322 
L 3341 331 
L 3884 331 
L 3884 0 
L 2766 0 
L 2766 588 
Q 2606 256 2353 82 
Q 2100 -91 1766 -91 
Q 1213 -91 952 223 
Q 691 538 691 1209 
L 691 2988 
L 172 2988 
L 172 3322 
L 1269 3322 
L 1269 1388 
Q 1269 781 1417 556 
Q 1566 331 1947 331 
Q 2347 331 2556 625 
Q 2766 919 2766 1478 
L 2766 2988 
L 2266 2988 
L 2266 3322 
z
" transform="scale(0.015625)"/>
        <path id="DejaVuSerif-794" d="M 4916 325 
Q 4916 500 5036 622 
Q 5156 744 5331 744 
Q 5503 744 5625 622 
Q 5747 500 5747 325 
Q 5747 153 5625 31 
Q 5503 -91 5331 -91 
Q 5153 -91 5034 29 
Q 4916 150 4916 325 
z
M 2784 325 
Q 2784 500 2904 622 
Q 3025 744 3200 744 
Q 3372 744 3494 622 
Q 3616 500 3616 325 
Q 3616 153 3494 31 
Q 3372 -91 3200 -91 
Q 3022 -91 2903 29 
Q 2784 150 2784 325 
z
M 653 325 
Q 653 500 773 622 
Q 894 744 1069 744 
Q 1241 744 1362 622 
Q 1484 500 1484 325 
Q 1484 153 1362 31 
Q 1241 -91 1069 -91 
Q 891 -91 772 29 
Q 653 150 653 325 
z
" transform="scale(0.015625)"/>
        <path id="DejaVuSerif-18" d="M 3219 4666 
L 3219 4153 
L 1081 4153 
L 1081 2816 
Q 1244 2928 1461 2984 
Q 1678 3041 1947 3041 
Q 2703 3041 3140 2622 
Q 3578 2203 3578 1478 
Q 3578 738 3136 323 
Q 2694 -91 1894 -91 
Q 1572 -91 1234 -12 
Q 897 66 544 225 
L 544 1131 
L 897 1131 
Q 925 688 1179 453 
Q 1434 219 1894 219 
Q 2388 219 2653 544 
Q 2919 869 2919 1478 
Q 2919 2084 2655 2407 
Q 2391 2731 1894 2731 
Q 1613 2731 1398 2631 
Q 1184 2531 1019 2322 
L 750 2322 
L 750 4666 
L 3219 4666 
z
" transform="scale(0.015625)"/>
       </defs>
       <use xlink:href="#DejaVuSerif-33"/>
       <use xlink:href="#DejaVuSerif-44" transform="translate(62.796875 0)"/>
       <use xlink:href="#DejaVuSerif-51" transform="translate(122.421875 0)"/>
       <use xlink:href="#DejaVuSerif-4c" transform="translate(186.828125 0)"/>
       <use xlink:href="#DejaVuSerif-48" transform="translate(218.8125 0)"/>
       <use xlink:href="#DejaVuSerif-55" transform="translate(278 0)"/>
       <use xlink:href="#DejaVuSerif-3" transform="translate(325.796875 0)"/>
       <use xlink:href="#DejaVuSerif-48" transform="translate(357.578125 0)"/>
       <use xlink:href="#DejaVuSerif-51" transform="translate(416.765625 0)"/>
       <use xlink:href="#DejaVuSerif-3" transform="translate(481.171875 0)"/>
       <use xlink:href="#DejaVuSerif-4f" transform="translate(512.953125 0)"/>
       <use xlink:href="#DejaVuSerif-4c" transform="translate(544.9375 0)"/>
       <use xlink:href="#DejaVuSerif-4a" transform="translate(576.921875 0)"/>
       <use xlink:href="#DejaVuSerif-51" transform="translate(640.9375 0)"/>
       <use xlink:href="#DejaVuSerif-48" transform="translate(705.34375 0)"/>
       <use xlink:href="#DejaVuSerif-3" transform="translate(764.53125 0)"/>
       <use xlink:href="#DejaVuSerif-b" transform="translate(796.3125 0)"/>
       <use xlink:href="#DejaVuSerif-2f" transform="translate(835.328125 0)"/>
       <use xlink:href="#DejaVuSerif-44" transform="translate(901.734375 0)"/>
       <use xlink:href="#DejaVuSerif-3" transform="translate(961.359375 0)"/>
       <use xlink:href="#DejaVuSerif-35" transform="translate(993.140625 0)"/>
       <use xlink:href="#DejaVuSerif-58" transform="translate(1068.4375 0)"/>
       <use xlink:href="#DejaVuSerif-46" transform="translate(1132.84375 0)"/>
       <use xlink:href="#DejaVuSerif-4b" transform="translate(1188.84375 0)"/>
       <use xlink:href="#DejaVuSerif-48" transform="translate(1253.25 0)"/>
       <use xlink:href="#DejaVuSerif-794" transform="translate(1312.4375 0)"/>
       <use xlink:href="#DejaVuSerif-c" transform="translate(1412.4375 0)"/>
       <use xlink:href="#DejaVuSerif-3" transform="translate(1451.453125 0)"/>
       <use xlink:href="#DejaVuSerif-b" transform="translate(1483.234375 0)"/>
       <use xlink:href="#DejaVuSerif-51" transform="translate(1522.25 0)"/>
       <use xlink:href="#DejaVuSerif-20" transform="translate(1586.65625 0)"/>
       <use xlink:href="#DejaVuSerif-14" transform="translate(1670.453125 0)"/>
       <use xlink:href="#DejaVuSerif-18" transform="translate(1734.078125 0)"/>
       <use xlink:href="#DejaVuSerif-18" transform="translate(1797.703125 0)"/>
       <use xlink:href="#DejaVuSerif-c" transform="translate(1861.328125 0)"/>
      </g>
     </g>
    </g>
    <g id="ytick_3">
     <g id="line2d_9">
      <g>
       <use xlink:href="#m9ca7c6677f" x="204.234375" y="167.089849" style="stroke: #000000; stroke-width: 0.8"/>
      </g>
     </g>
     <g id="text_10">
      <!-- Halle commerçante (n=359) -->
      <g transform="translate(52.94375 170.889068) scale(0.1 -0.1)">
       <defs>
        <path id="DejaVuSerif-2b" d="M 353 0 
L 353 331 
L 947 331 
L 947 4331 
L 353 4331 
L 353 4666 
L 2175 4666 
L 2175 4331 
L 1581 4331 
L 1581 2719 
L 4000 2719 
L 4000 4331 
L 3406 4331 
L 3406 4666 
L 5228 4666 
L 5228 4331 
L 4634 4331 
L 4634 331 
L 5228 331 
L 5228 0 
L 3406 0 
L 3406 331 
L 4000 331 
L 4000 2338 
L 1581 2338 
L 1581 331 
L 2175 331 
L 2175 0 
L 353 0 
z
" transform="scale(0.015625)"/>
        <path id="DejaVuSerif-a9" d="M 3291 997 
Q 3169 466 2822 187 
Q 2475 -91 1925 -91 
Q 1200 -91 759 389 
Q 319 869 319 1663 
Q 319 2459 759 2936 
Q 1200 3413 1925 3413 
Q 2241 3413 2553 3339 
Q 2866 3266 3181 3116 
L 3181 2266 
L 2847 2266 
Q 2781 2703 2561 2903 
Q 2341 3103 1931 3103 
Q 1466 3103 1228 2742 
Q 991 2381 991 1663 
Q 991 944 1227 581 
Q 1463 219 1931 219 
Q 2303 219 2525 412 
Q 2747 606 2828 997 
L 3291 997 
z
M 2119 0 
Q 2319 -200 2417 -375 
Q 2516 -550 2516 -703 
Q 2516 -956 2319 -1095 
Q 2122 -1234 1772 -1234 
Q 1641 -1234 1503 -1215 
Q 1366 -1197 1222 -1159 
L 1222 -750 
Q 1351 -803 1474 -829 
Q 1597 -856 1707 -856 
Q 1885 -856 1988 -773 
Q 2091 -691 2091 -550 
Q 2091 -463 2022 -325 
Q 1954 -188 1816 0 
L 2119 0 
z
" transform="scale(0.015625)"/>
        <path id="DejaVuSerif-16" d="M 622 4469 
Q 988 4606 1323 4678 
Q 1659 4750 1953 4750 
Q 2638 4750 3022 4454 
Q 3406 4159 3406 3634 
Q 3406 3213 3140 2930 
Q 2875 2647 2388 2547 
Q 2963 2466 3280 2130 
Q 3597 1794 3597 1259 
Q 3597 606 3158 257 
Q 2719 -91 1894 -91 
Q 1528 -91 1179 -12 
Q 831 66 488 225 
L 488 1131 
L 838 1131 
Q 869 681 1141 450 
Q 1413 219 1906 219 
Q 2384 219 2661 495 
Q 2938 772 2938 1253 
Q 2938 1803 2653 2086 
Q 2369 2369 1819 2369 
L 1522 2369 
L 1522 2688 
L 1678 2688 
Q 2225 2688 2498 2914 
Q 2772 3141 2772 3597 
Q 2772 4006 2547 4223 
Q 2322 4441 1900 4441 
Q 1478 4441 1245 4241 
Q 1013 4041 972 3647 
L 622 3647 
L 622 4469 
z
" transform="scale(0.015625)"/>
       </defs>
       <use xlink:href="#DejaVuSerif-2b"/>
       <use xlink:href="#DejaVuSerif-44" transform="translate(87.203125 0)"/>
       <use xlink:href="#DejaVuSerif-4f" transform="translate(146.828125 0)"/>
       <use xlink:href="#DejaVuSerif-4f" transform="translate(178.8125 0)"/>
       <use xlink:href="#DejaVuSerif-48" transform="translate(210.796875 0)"/>
       <use xlink:href="#DejaVuSerif-3" transform="translate(269.984375 0)"/>
       <use xlink:href="#DejaVuSerif-46" transform="translate(301.765625 0)"/>
       <use xlink:href="#DejaVuSerif-52" transform="translate(357.765625 0)"/>
       <use xlink:href="#DejaVuSerif-50" transform="translate(417.96875 0)"/>
       <use xlink:href="#DejaVuSerif-50" transform="translate(512.796875 0)"/>
       <use xlink:href="#DejaVuSerif-48" transform="translate(607.625 0)"/>
       <use xlink:href="#DejaVuSerif-55" transform="translate(666.8125 0)"/>
       <use xlink:href="#DejaVuSerif-a9" transform="translate(714.609375 0)"/>
       <use xlink:href="#DejaVuSerif-44" transform="translate(770.609375 0)"/>
       <use xlink:href="#DejaVuSerif-51" transform="translate(830.234375 0)"/>
       <use xlink:href="#DejaVuSerif-57" transform="translate(894.640625 0)"/>
       <use xlink:href="#DejaVuSerif-48" transform="translate(934.828125 0)"/>
       <use xlink:href="#DejaVuSerif-3" transform="translate(994.015625 0)"/>
       <use xlink:href="#DejaVuSerif-b" transform="translate(1025.796875 0)"/>
       <use xlink:href="#DejaVuSerif-51" transform="translate(1064.8125 0)"/>
       <use xlink:href="#DejaVuSerif-20" transform="translate(1129.21875 0)"/>
       <use xlink:href="#DejaVuSerif-16" transform="translate(1213.015625 0)"/>
       <use xlink:href="#DejaVuSerif-18" transform="translate(1276.640625 0)"/>
       <use xlink:href="#DejaVuSerif-1c" transform="translate(1340.265625 0)"/>
       <use xlink:href="#DejaVuSerif-c" transform="translate(1403.890625 0)"/>
      </g>
     </g>
    </g>
    <g id="ytick_4">
     <g id="line2d_10">
      <g>
       <use xlink:href="#m9ca7c6677f" x="204.234375" y="127.986401" style="stroke: #000000; stroke-width: 0.8"/>
      </g>
     </g>
     <g id="text_11">
      <!-- Magasin de producteurs (n=351) -->
      <g transform="translate(28.4 131.78562) scale(0.1 -0.1)">
       <defs>
        <path id="DejaVuSerif-30" d="M 353 0 
L 353 331 
L 947 331 
L 947 4331 
L 319 4331 
L 319 4666 
L 1678 4666 
L 3316 1344 
L 4953 4666 
L 6228 4666 
L 6228 4331 
L 5606 4331 
L 5606 331 
L 6203 331 
L 6203 0 
L 4378 0 
L 4378 331 
L 4972 331 
L 4972 3938 
L 3372 684 
L 2931 684 
L 1331 3938 
L 1331 331 
L 1925 331 
L 1925 0 
L 353 0 
z
" transform="scale(0.015625)"/>
       </defs>
       <use xlink:href="#DejaVuSerif-30"/>
       <use xlink:href="#DejaVuSerif-44" transform="translate(102.390625 0)"/>
       <use xlink:href="#DejaVuSerif-4a" transform="translate(162.015625 0)"/>
       <use xlink:href="#DejaVuSerif-44" transform="translate(226.03125 0)"/>
       <use xlink:href="#DejaVuSerif-56" transform="translate(285.65625 0)"/>
       <use xlink:href="#DejaVuSerif-4c" transform="translate(336.96875 0)"/>
       <use xlink:href="#DejaVuSerif-51" transform="translate(368.953125 0)"/>
       <use xlink:href="#DejaVuSerif-3" transform="translate(433.359375 0)"/>
       <use xlink:href="#DejaVuSerif-47" transform="translate(465.140625 0)"/>
       <use xlink:href="#DejaVuSerif-48" transform="translate(529.15625 0)"/>
       <use xlink:href="#DejaVuSerif-3" transform="translate(588.34375 0)"/>
       <use xlink:href="#DejaVuSerif-53" transform="translate(620.125 0)"/>
       <use xlink:href="#DejaVuSerif-55" transform="translate(684.140625 0)"/>
       <use xlink:href="#DejaVuSerif-52" transform="translate(731.9375 0)"/>
       <use xlink:href="#DejaVuSerif-47" transform="translate(792.140625 0)"/>
       <use xlink:href="#DejaVuSerif-58" transform="translate(856.15625 0)"/>
       <use xlink:href="#DejaVuSerif-46" transform="translate(920.5625 0)"/>
       <use xlink:href="#DejaVuSerif-57" transform="translate(976.5625 0)"/>
       <use xlink:href="#DejaVuSerif-48" transform="translate(1016.75 0)"/>
       <use xlink:href="#DejaVuSerif-58" transform="translate(1075.9375 0)"/>
       <use xlink:href="#DejaVuSerif-55" transform="translate(1140.34375 0)"/>
       <use xlink:href="#DejaVuSerif-56" transform="translate(1188.140625 0)"/>
       <use xlink:href="#DejaVuSerif-3" transform="translate(1239.453125 0)"/>
       <use xlink:href="#DejaVuSerif-b" transform="translate(1271.234375 0)"/>
       <use xlink:href="#DejaVuSerif-51" transform="translate(1310.25 0)"/>
       <use xlink:href="#DejaVuSerif-20" transform="translate(1374.65625 0)"/>
       <use xlink:href="#DejaVuSerif-16" transform="translate(1458.453125 0)"/>
       <use xlink:href="#DejaVuSerif-18" transform="translate(1522.078125 0)"/>
       <use xlink:href="#DejaVuSerif-14" transform="translate(1585.703125 0)"/>
       <use xlink:href="#DejaVuSerif-c" transform="translate(1649.328125 0)"/>
      </g>
     </g>
    </g>
    <g id="ytick_5">
     <g id="line2d_11">
      <g>
       <use xlink:href="#m9ca7c6677f" x="204.234375" y="88.882953" style="stroke: #000000; stroke-width: 0.8"/>
      </g>
     </g>
     <g id="text_12">
      <!-- À la ferme (n=433) -->
      <g transform="translate(99.804688 93.519671) scale(0.1 -0.1)">
       <use xlink:href="#DejaVuSerif-82"/>
       <use xlink:href="#DejaVuSerif-3" transform="translate(72.21875 0)"/>
       <use xlink:href="#DejaVuSerif-4f" transform="translate(104 0)"/>
       <use xlink:href="#DejaVuSerif-44" transform="translate(135.984375 0)"/>
       <use xlink:href="#DejaVuSerif-3" transform="translate(195.609375 0)"/>
       <use xlink:href="#DejaVuSerif-49" transform="translate(227.390625 0)"/>
       <use xlink:href="#DejaVuSerif-48" transform="translate(264.40625 0)"/>
       <use xlink:href="#DejaVuSerif-55" transform="translate(323.59375 0)"/>
       <use xlink:href="#DejaVuSerif-50" transform="translate(371.390625 0)"/>
       <use xlink:href="#DejaVuSerif-48" transform="translate(466.21875 0)"/>
       <use xlink:href="#DejaVuSerif-3" transform="translate(525.40625 0)"/>
       <use xlink:href="#DejaVuSerif-b" transform="translate(557.1875 0)"/>
       <use xlink:href="#DejaVuSerif-51" transform="translate(596.203125 0)"/>
       <use xlink:href="#DejaVuSerif-20" transform="translate(660.609375 0)"/>
       <use xlink:href="#DejaVuSerif-17" transform="translate(744.40625 0)"/>
       <use xlink:href="#DejaVuSerif-16" transform="translate(808.03125 0)"/>
       <use xlink:href="#DejaVuSerif-16" transform="translate(871.65625 0)"/>
       <use xlink:href="#DejaVuSerif-c" transform="translate(935.28125 0)"/>
      </g>
     </g>
    </g>
    <g id="ytick_6">
     <g id="line2d_12">
      <g>
       <use xlink:href="#m9ca7c6677f" x="204.234375" y="49.779504" style="stroke: #000000; stroke-width: 0.8"/>
      </g>
     </g>
     <g id="text_13">
      <!-- Marché (au producteur) (n=770) -->
      <g transform="translate(30.040625 53.778723) scale(0.1 -0.1)">
       <use xlink:href="#DejaVuSerif-30"/>
       <use xlink:href="#DejaVuSerif-44" transform="translate(102.390625 0)"/>
       <use xlink:href="#DejaVuSerif-55" transform="translate(162.015625 0)"/>
       <use xlink:href="#DejaVuSerif-46" transform="translate(209.8125 0)"/>
       <use xlink:href="#DejaVuSerif-4b" transform="translate(265.8125 0)"/>
       <use xlink:href="#DejaVuSerif-ab" transform="translate(330.21875 0)"/>
       <use xlink:href="#DejaVuSerif-3" transform="translate(389.40625 0)"/>
       <use xlink:href="#DejaVuSerif-b" transform="translate(421.1875 0)"/>
       <use xlink:href="#DejaVuSerif-44" transform="translate(460.203125 0)"/>
       <use xlink:href="#DejaVuSerif-58" transform="translate(519.828125 0)"/>
       <use xlink:href="#DejaVuSerif-3" transform="translate(584.234375 0)"/>
       <use xlink:href="#DejaVuSerif-53" transform="translate(616.015625 0)"/>
       <use xlink:href="#DejaVuSerif-55" transform="translate(680.03125 0)"/>
       <use xlink:href="#DejaVuSerif-52" transform="translate(727.828125 0)"/>
       <use xlink:href="#DejaVuSerif-47" transform="translate(788.03125 0)"/>
       <use xlink:href="#DejaVuSerif-58" transform="translate(852.046875 0)"/>
       <use xlink:href="#DejaVuSerif-46" transform="translate(916.453125 0)"/>
       <use xlink:href="#DejaVuSerif-57" transform="translate(972.453125 0)"/>
       <use xlink:href="#DejaVuSerif-48" transform="translate(1012.640625 0)"/>
       <use xlink:href="#DejaVuSerif-58" transform="translate(1071.828125 0)"/>
       <use xlink:href="#DejaVuSerif-55" transform="translate(1136.234375 0)"/>
       <use xlink:href="#DejaVuSerif-c" transform="translate(1184.03125 0)"/>
       <use xlink:href="#DejaVuSerif-3" transform="translate(1223.046875 0)"/>
       <use xlink:href="#DejaVuSerif-b" transform="translate(1254.828125 0)"/>
       <use xlink:href="#DejaVuSerif-51" transform="translate(1293.84375 0)"/>
       <use xlink:href="#DejaVuSerif-20" transform="translate(1358.25 0)"/>
       <use xlink:href="#DejaVuSerif-1a" transform="translate(1442.046875 0)"/>
       <use xlink:href="#DejaVuSerif-1a" transform="translate(1505.671875 0)"/>
       <use xlink:href="#DejaVuSerif-13" transform="translate(1569.296875 0)"/>
       <use xlink:href="#DejaVuSerif-c" transform="translate(1632.921875 0)"/>
      </g>
     </g>
    </g>
   </g>
   <g id="patch_21">
    <path d="M 204.234375 272.278125 
L 204.234375 22.798125 
" style="fill: none; stroke: #000000; stroke-width: 0.8; stroke-linejoin: miter; stroke-linecap: square"/>
   </g>
   <g id="patch_22">
    <path d="M 706.434375 272.278125 
L 706.434375 22.798125 
" style="fill: none; stroke: #000000; stroke-width: 0.8; stroke-linejoin: miter; stroke-linecap: square"/>
   </g>
   <g id="patch_23">
    <path d="M 204.234375 272.278125 
L 706.434375 272.278125 
" style="fill: none; stroke: #000000; stroke-width: 0.8; stroke-linejoin: miter; stroke-linecap: square"/>
   </g>
   <g id="patch_24">
    <path d="M 204.234375 22.798125 
L 706.434375 22.798125 
" style="fill: none; stroke: #000000; stroke-width: 0.8; stroke-linejoin: miter; stroke-linecap: square"/>
   </g>
   <g id="text_14">
    <!-- 11% -->
    <g style="fill: #ffffff" transform="translate(224.089205 247.374871) scale(0.08 -0.08)">
     <use xlink:href="#DejaVuSerif-14"/>
     <use xlink:href="#DejaVuSerif-14" transform="translate(63.625 0)"/>
     <use xlink:href="#DejaVuSerif-8" transform="translate(127.25 0)"/>
    </g>
   </g>
   <g id="text_15">
    <!-- 30% -->
    <g transform="translate(621.452841 247.374871) scale(0.08 -0.08)">
     <use xlink:href="#DejaVuSerif-16"/>
     <use xlink:href="#DejaVuSerif-13" transform="translate(63.625 0)"/>
     <use xlink:href="#DejaVuSerif-8" transform="translate(127.25 0)"/>
    </g>
   </g>
   <g id="text_16">
    <!-- 18% -->
    <g style="fill: #ffffff" transform="translate(240.70375 208.271422) scale(0.08 -0.08)">
     <use xlink:href="#DejaVuSerif-14"/>
     <use xlink:href="#DejaVuSerif-1b" transform="translate(63.625 0)"/>
     <use xlink:href="#DejaVuSerif-8" transform="translate(127.25 0)"/>
    </g>
   </g>
   <g id="text_17">
    <!-- 46% -->
    <g transform="translate(582.52375 208.271422) scale(0.08 -0.08)">
     <use xlink:href="#DejaVuSerif-17"/>
     <use xlink:href="#DejaVuSerif-19" transform="translate(63.625 0)"/>
     <use xlink:href="#DejaVuSerif-8" transform="translate(127.25 0)"/>
    </g>
   </g>
   <g id="text_18">
    <!-- 23% -->
    <g style="fill: #ffffff" transform="translate(254.096953 169.167974) scale(0.08 -0.08)">
     <use xlink:href="#DejaVuSerif-15"/>
     <use xlink:href="#DejaVuSerif-16" transform="translate(63.625 0)"/>
     <use xlink:href="#DejaVuSerif-8" transform="translate(127.25 0)"/>
    </g>
   </g>
   <g id="text_19">
    <!-- 27% -->
    <g transform="translate(628.998346 169.167974) scale(0.08 -0.08)">
     <use xlink:href="#DejaVuSerif-15"/>
     <use xlink:href="#DejaVuSerif-1a" transform="translate(63.625 0)"/>
     <use xlink:href="#DejaVuSerif-8" transform="translate(127.25 0)"/>
    </g>
   </g>
   <g id="text_20">
    <!-- 29% -->
    <g style="fill: #ffffff" transform="translate(267.597596 130.064526) scale(0.08 -0.08)">
     <use xlink:href="#DejaVuSerif-15"/>
     <use xlink:href="#DejaVuSerif-1c" transform="translate(63.625 0)"/>
     <use xlink:href="#DejaVuSerif-8" transform="translate(127.25 0)"/>
    </g>
   </g>
   <g id="text_21">
    <!-- 22% -->
    <g transform="translate(641.74375 130.064526) scale(0.08 -0.08)">
     <use xlink:href="#DejaVuSerif-15"/>
     <use xlink:href="#DejaVuSerif-15" transform="translate(63.625 0)"/>
     <use xlink:href="#DejaVuSerif-8" transform="translate(127.25 0)"/>
    </g>
   </g>
   <g id="text_22">
    <!-- 40% -->
    <g style="fill: #ffffff" transform="translate(295.667768 90.961078) scale(0.08 -0.08)">
     <use xlink:href="#DejaVuSerif-17"/>
     <use xlink:href="#DejaVuSerif-13" transform="translate(63.625 0)"/>
     <use xlink:href="#DejaVuSerif-8" transform="translate(127.25 0)"/>
    </g>
   </g>
   <g id="text_23">
    <!-- 19% -->
    <g transform="translate(650.571233 90.961078) scale(0.08 -0.08)">
     <use xlink:href="#DejaVuSerif-14"/>
     <use xlink:href="#DejaVuSerif-1c" transform="translate(63.625 0)"/>
     <use xlink:href="#DejaVuSerif-8" transform="translate(127.25 0)"/>
    </g>
   </g>
   <g id="text_24">
    <!-- 62% -->
    <g style="fill: #ffffff" transform="translate(351.221412 51.857629) scale(0.08 -0.08)">
     <use xlink:href="#DejaVuSerif-19"/>
     <use xlink:href="#DejaVuSerif-15" transform="translate(63.625 0)"/>
     <use xlink:href="#DejaVuSerif-8" transform="translate(127.25 0)"/>
    </g>
   </g>
   <g id="text_25">
    <!-- 6% -->
    <g transform="translate(684.109659 51.857629) scale(0.08 -0.08)">
     <use xlink:href="#DejaVuSerif-19"/>
     <use xlink:href="#DejaVuSerif-8" transform="translate(63.625 0)"/>
    </g>
   </g>
   <g id="text_26">
    <!-- De l'essai à l'ancrage — récence d'achat par forme de vente directe -->
    <g transform="translate(249.162188 16.798125) scale(0.12 -0.12)">
     <defs>
      <path id="DejaVuSerif-a" d="M 1125 4666 
L 1125 2931 
L 628 2931 
L 628 4666 
L 1125 4666 
z
" transform="scale(0.015625)"/>
      <path id="DejaVuSerif-a2" d="M 2547 1044 
L 2547 1747 
L 1806 1747 
Q 1378 1747 1168 1562 
Q 959 1378 959 997 
Q 959 650 1171 447 
Q 1384 244 1747 244 
Q 2106 244 2326 466 
Q 2547 688 2547 1044 
z
M 3122 2075 
L 3122 331 
L 3634 331 
L 3634 0 
L 2547 0 
L 2547 359 
Q 2356 128 2106 18 
Q 1856 -91 1522 -91 
Q 969 -91 644 203 
Q 319 497 319 997 
Q 319 1513 691 1797 
Q 1063 2081 1741 2081 
L 2547 2081 
L 2547 2309 
Q 2547 2688 2317 2895 
Q 2088 3103 1672 3103 
Q 1328 3103 1125 2947 
Q 922 2791 872 2484 
L 575 2484 
L 575 3156 
Q 875 3284 1158 3348 
Q 1441 3413 1709 3413 
Q 2400 3413 2761 3070 
Q 3122 2728 3122 2075 
z
M 1325 5113 
L 2137 3938 
L 1772 3938 
L 709 5113 
L 1325 5113 
z
" transform="scale(0.015625)"/>
      <path id="DejaVuSerif-782" d="M 281 1906 
L 6119 1906 
L 6119 1491 
L 281 1491 
L 281 1906 
z
" transform="scale(0.015625)"/>
     </defs>
     <use xlink:href="#DejaVuSerif-27"/>
     <use xlink:href="#DejaVuSerif-48" transform="translate(80.171875 0)"/>
     <use xlink:href="#DejaVuSerif-3" transform="translate(139.359375 0)"/>
     <use xlink:href="#DejaVuSerif-4f" transform="translate(171.140625 0)"/>
     <use xlink:href="#DejaVuSerif-a" transform="translate(203.125 0)"/>
     <use xlink:href="#DejaVuSerif-48" transform="translate(230.609375 0)"/>
     <use xlink:href="#DejaVuSerif-56" transform="translate(289.796875 0)"/>
     <use xlink:href="#DejaVuSerif-56" transform="translate(341.109375 0)"/>
     <use xlink:href="#DejaVuSerif-44" transform="translate(392.421875 0)"/>
     <use xlink:href="#DejaVuSerif-4c" transform="translate(452.046875 0)"/>
     <use xlink:href="#DejaVuSerif-3" transform="translate(484.03125 0)"/>
     <use xlink:href="#DejaVuSerif-a2" transform="translate(515.8125 0)"/>
     <use xlink:href="#DejaVuSerif-3" transform="translate(575.4375 0)"/>
     <use xlink:href="#DejaVuSerif-4f" transform="translate(607.21875 0)"/>
     <use xlink:href="#DejaVuSerif-a" transform="translate(639.203125 0)"/>
     <use xlink:href="#DejaVuSerif-44" transform="translate(666.6875 0)"/>
     <use xlink:href="#DejaVuSerif-51" transform="translate(726.3125 0)"/>
     <use xlink:href="#DejaVuSerif-46" transform="translate(790.71875 0)"/>
     <use xlink:href="#DejaVuSerif-55" transform="translate(846.71875 0)"/>
     <use xlink:href="#DejaVuSerif-44" transform="translate(894.515625 0)"/>
     <use xlink:href="#DejaVuSerif-4a" transform="translate(954.140625 0)"/>
     <use xlink:href="#DejaVuSerif-48" transform="translate(1018.15625 0)"/>
     <use xlink:href="#DejaVuSerif-3" transform="translate(1077.34375 0)"/>
     <use xlink:href="#DejaVuSerif-782" transform="translate(1109.125 0)"/>
     <use xlink:href="#DejaVuSerif-3" transform="translate(1209.125 0)"/>
     <use xlink:href="#DejaVuSerif-55" transform="translate(1240.90625 0)"/>
     <use xlink:href="#DejaVuSerif-ab" transform="translate(1288.703125 0)"/>
     <use xlink:href="#DejaVuSerif-46" transform="translate(1347.890625 0)"/>
     <use xlink:href="#DejaVuSerif-48" transform="translate(1403.890625 0)"/>
     <use xlink:href="#DejaVuSerif-51" transform="translate(1463.078125 0)"/>
     <use xlink:href="#DejaVuSerif-46" transform="translate(1527.484375 0)"/>
     <use xlink:href="#DejaVuSerif-48" transform="translate(1583.484375 0)"/>
     <use xlink:href="#DejaVuSerif-3" transform="translate(1642.671875 0)"/>
     <use xlink:href="#DejaVuSerif-47" transform="translate(1674.453125 0)"/>
     <use xlink:href="#DejaVuSerif-a" transform="translate(1738.46875 0)"/>
     <use xlink:href="#DejaVuSerif-44" transform="translate(1765.953125 0)"/>
     <use xlink:href="#DejaVuSerif-46" transform="translate(1825.578125 0)"/>
     <use xlink:href="#DejaVuSerif-4b" transform="translate(1881.578125 0)"/>
     <use xlink:href="#DejaVuSerif-44" transform="translate(1945.984375 0)"/>
     <use xlink:href="#DejaVuSerif-57" transform="translate(2005.609375 0)"/>
     <use xlink:href="#DejaVuSerif-3" transform="translate(2045.796875 0)"/>
     <use xlink:href="#DejaVuSerif-53" transform="translate(2077.578125 0)"/>
     <use xlink:href="#DejaVuSerif-44" transform="translate(2141.59375 0)"/>
     <use xlink:href="#DejaVuSerif-55" transform="translate(2201.21875 0)"/>
     <use xlink:href="#DejaVuSerif-3" transform="translate(2249.015625 0)"/>
     <use xlink:href="#DejaVuSerif-49" transform="translate(2280.796875 0)"/>
     <use xlink:href="#DejaVuSerif-52" transform="translate(2317.8125 0)"/>
     <use xlink:href="#DejaVuSerif-55" transform="translate(2378.015625 0)"/>
     <use xlink:href="#DejaVuSerif-50" transform="translate(2425.8125 0)"/>
     <use xlink:href="#DejaVuSerif-48" transform="translate(2520.640625 0)"/>
     <use xlink:href="#DejaVuSerif-3" transform="translate(2579.828125 0)"/>
     <use xlink:href="#DejaVuSerif-47" transform="translate(2611.609375 0)"/>
     <use xlink:href="#DejaVuSerif-48" transform="translate(2675.625 0)"/>
     <use xlink:href="#DejaVuSerif-3" transform="translate(2734.8125 0)"/>
     <use xlink:href="#DejaVuSerif-59" transform="translate(2766.59375 0)"/>
     <use xlink:href="#DejaVuSerif-48" transform="translate(2823.09375 0)"/>
     <use xlink:href="#DejaVuSerif-51" transform="translate(2882.28125 0)"/>
     <use xlink:href="#DejaVuSerif-57" transform="translate(2946.6875 0)"/>
     <use xlink:href="#DejaVuSerif-48" transform="translate(2986.875 0)"/>
     <use xlink:href="#DejaVuSerif-3" transform="translate(3046.0625 0)"/>
     <use xlink:href="#DejaVuSerif-47" transform="translate(3077.84375 0)"/>
     <use xlink:href="#DejaVuSerif-4c" transform="translate(3141.859375 0)"/>
     <use xlink:href="#DejaVuSerif-55" transform="translate(3173.84375 0)"/>
     <use xlink:href="#DejaVuSerif-48" transform="translate(3221.640625 0)"/>
     <use xlink:href="#DejaVuSerif-46" transform="translate(3280.828125 0)"/>
     <use xlink:href="#DejaVuSerif-57" transform="translate(3336.828125 0)"/>
     <use xlink:href="#DejaVuSerif-48" transform="translate(3377.015625 0)"/>
    </g>
   </g>
   <g id="legend_1">
    <g id="patch_25">
     <path d="M 533.090625 268.278125 
L 700.834375 268.278125 
Q 702.434375 268.278125 702.434375 266.678125 
L 702.434375 230.84375 
Q 702.434375 229.24375 700.834375 229.24375 
L 533.090625 229.24375 
Q 531.490625 229.24375 531.490625 230.84375 
L 531.490625 266.678125 
Q 531.490625 268.278125 533.090625 268.278125 
z
" style="fill: #ffffff; stroke: #cccccc; stroke-linejoin: miter"/>
    </g>
    <g id="patch_26">
     <path d="M 534.690625 238.8425 
L 550.690625 238.8425 
L 550.690625 233.2425 
L 534.690625 233.2425 
z
" style="fill: #404040; stroke: #000000; stroke-linejoin: miter"/>
    </g>
    <g id="text_27">
     <!-- A acheté au cours du mois (récent) -->
     <g transform="translate(557.090625 238.8425) scale(0.08 -0.08)">
      <defs>
       <path id="DejaVuSerif-24" d="M 1281 1691 
L 2994 1691 
L 2138 3909 
L 1281 1691 
z
M -38 0 
L -38 331 
L 372 331 
L 2034 4666 
L 2559 4666 
L 4225 331 
L 4684 331 
L 4684 0 
L 2988 0 
L 2988 331 
L 3506 331 
L 3116 1356 
L 1153 1356 
L 763 331 
L 1275 331 
L 1275 0 
L -38 0 
z
" transform="scale(0.015625)"/>
      </defs>
      <use xlink:href="#DejaVuSerif-24"/>
      <use xlink:href="#DejaVuSerif-3" transform="translate(72.21875 0)"/>
      <use xlink:href="#DejaVuSerif-44" transform="translate(104 0)"/>
      <use xlink:href="#DejaVuSerif-46" transform="translate(163.625 0)"/>
      <use xlink:href="#DejaVuSerif-4b" transform="translate(219.625 0)"/>
      <use xlink:href="#DejaVuSerif-48" transform="translate(284.03125 0)"/>
      <use xlink:href="#DejaVuSerif-57" transform="translate(343.21875 0)"/>
      <use xlink:href="#DejaVuSerif-ab" transform="translate(383.40625 0)"/>
      <use xlink:href="#DejaVuSerif-3" transform="translate(442.59375 0)"/>
      <use xlink:href="#DejaVuSerif-44" transform="translate(474.375 0)"/>
      <use xlink:href="#DejaVuSerif-58" transform="translate(534 0)"/>
      <use xlink:href="#DejaVuSerif-3" transform="translate(598.40625 0)"/>
      <use xlink:href="#DejaVuSerif-46" transform="translate(630.1875 0)"/>
      <use xlink:href="#DejaVuSerif-52" transform="translate(686.1875 0)"/>
      <use xlink:href="#DejaVuSerif-58" transform="translate(746.390625 0)"/>
      <use xlink:href="#DejaVuSerif-55" transform="translate(810.796875 0)"/>
      <use xlink:href="#DejaVuSerif-56" transform="translate(858.59375 0)"/>
      <use xlink:href="#DejaVuSerif-3" transform="translate(909.90625 0)"/>
      <use xlink:href="#DejaVuSerif-47" transform="translate(941.6875 0)"/>
      <use xlink:href="#DejaVuSerif-58" transform="translate(1005.703125 0)"/>
      <use xlink:href="#DejaVuSerif-3" transform="translate(1070.109375 0)"/>
      <use xlink:href="#DejaVuSerif-50" transform="translate(1101.890625 0)"/>
      <use xlink:href="#DejaVuSerif-52" transform="translate(1196.71875 0)"/>
      <use xlink:href="#DejaVuSerif-4c" transform="translate(1256.921875 0)"/>
      <use xlink:href="#DejaVuSerif-56" transform="translate(1288.90625 0)"/>
      <use xlink:href="#DejaVuSerif-3" transform="translate(1340.21875 0)"/>
      <use xlink:href="#DejaVuSerif-b" transform="translate(1372 0)"/>
      <use xlink:href="#DejaVuSerif-55" transform="translate(1411.015625 0)"/>
      <use xlink:href="#DejaVuSerif-ab" transform="translate(1458.8125 0)"/>
      <use xlink:href="#DejaVuSerif-46" transform="translate(1518 0)"/>
      <use xlink:href="#DejaVuSerif-48" transform="translate(1574 0)"/>
      <use xlink:href="#DejaVuSerif-51" transform="translate(1633.1875 0)"/>
      <use xlink:href="#DejaVuSerif-57" transform="translate(1697.59375 0)"/>
      <use xlink:href="#DejaVuSerif-c" transform="translate(1737.78125 0)"/>
     </g>
    </g>
    <g id="patch_27">
     <path d="M 534.690625 251.155625 
L 550.690625 251.155625 
L 550.690625 245.555625 
L 534.690625 245.555625 
z
" style="fill: #999999; stroke: #000000; stroke-linejoin: miter"/>
    </g>
    <g id="text_28">
     <!-- Achète encore, mais pas ce mois-ci -->
     <g transform="translate(557.090625 251.155625) scale(0.08 -0.08)">
      <defs>
       <path id="DejaVuSerif-aa" d="M 3469 1600 
L 991 1600 
L 991 1575 
Q 991 903 1244 561 
Q 1497 219 1991 219 
Q 2369 219 2611 417 
Q 2853 616 2950 1006 
L 3413 1006 
Q 3275 459 2904 184 
Q 2534 -91 1931 -91 
Q 1203 -91 761 389 
Q 319 869 319 1663 
Q 319 2450 753 2931 
Q 1188 3413 1894 3413 
Q 2647 3413 3050 2948 
Q 3453 2484 3469 1600 
z
M 2791 1931 
Q 2772 2513 2545 2808 
Q 2319 3103 1894 3103 
Q 1497 3103 1269 2806 
Q 1041 2509 991 1931 
L 2791 1931 
z
M 1441 5113 
L 2253 3938 
L 1888 3938 
L 825 5113 
L 1441 5113 
z
" transform="scale(0.015625)"/>
       <path id="DejaVuSerif-f" d="M 231 -622 
Q 525 -406 662 -114 
Q 800 178 800 594 
L 800 709 
L 1416 709 
Q 1391 175 1164 -208 
Q 938 -591 481 -872 
L 231 -622 
z
" transform="scale(0.015625)"/>
       <path id="DejaVuSerif-10" d="M 281 1959 
L 1881 1959 
L 1881 1472 
L 281 1472 
L 281 1959 
z
" transform="scale(0.015625)"/>
      </defs>
      <use xlink:href="#DejaVuSerif-24"/>
      <use xlink:href="#DejaVuSerif-46" transform="translate(72.21875 0)"/>
      <use xlink:href="#DejaVuSerif-4b" transform="translate(128.21875 0)"/>
      <use xlink:href="#DejaVuSerif-aa" transform="translate(192.625 0)"/>
      <use xlink:href="#DejaVuSerif-57" transform="translate(251.8125 0)"/>
      <use xlink:href="#DejaVuSerif-48" transform="translate(292 0)"/>
      <use xlink:href="#DejaVuSerif-3" transform="translate(351.1875 0)"/>
      <use xlink:href="#DejaVuSerif-48" transform="translate(382.96875 0)"/>
      <use xlink:href="#DejaVuSerif-51" transform="translate(442.15625 0)"/>
      <use xlink:href="#DejaVuSerif-46" transform="translate(506.5625 0)"/>
      <use xlink:href="#DejaVuSerif-52" transform="translate(562.5625 0)"/>
      <use xlink:href="#DejaVuSerif-55" transform="translate(622.765625 0)"/>
      <use xlink:href="#DejaVuSerif-48" transform="translate(670.5625 0)"/>
      <use xlink:href="#DejaVuSerif-f" transform="translate(729.75 0)"/>
      <use xlink:href="#DejaVuSerif-3" transform="translate(761.53125 0)"/>
      <use xlink:href="#DejaVuSerif-50" transform="translate(793.3125 0)"/>
      <use xlink:href="#DejaVuSerif-44" transform="translate(888.140625 0)"/>
      <use xlink:href="#DejaVuSerif-4c" transform="translate(947.765625 0)"/>
      <use xlink:href="#DejaVuSerif-56" transform="translate(979.75 0)"/>
      <use xlink:href="#DejaVuSerif-3" transform="translate(1031.0625 0)"/>
      <use xlink:href="#DejaVuSerif-53" transform="translate(1062.84375 0)"/>
      <use xlink:href="#DejaVuSerif-44" transform="translate(1126.859375 0)"/>
      <use xlink:href="#DejaVuSerif-56" transform="translate(1186.484375 0)"/>
      <use xlink:href="#DejaVuSerif-3" transform="translate(1237.796875 0)"/>
      <use xlink:href="#DejaVuSerif-46" transform="translate(1269.578125 0)"/>
      <use xlink:href="#DejaVuSerif-48" transform="translate(1325.578125 0)"/>
      <use xlink:href="#DejaVuSerif-3" transform="translate(1384.765625 0)"/>
      <use xlink:href="#DejaVuSerif-50" transform="translate(1416.546875 0)"/>
      <use xlink:href="#DejaVuSerif-52" transform="translate(1511.375 0)"/>
      <use xlink:href="#DejaVuSerif-4c" transform="translate(1571.578125 0)"/>
      <use xlink:href="#DejaVuSerif-56" transform="translate(1603.5625 0)"/>
      <use xlink:href="#DejaVuSerif-10" transform="translate(1654.875 0)"/>
      <use xlink:href="#DejaVuSerif-46" transform="translate(1688.671875 0)"/>
      <use xlink:href="#DejaVuSerif-4c" transform="translate(1744.671875 0)"/>
     </g>
    </g>
    <g id="patch_28">
     <path d="M 534.690625 263.15625 
L 550.690625 263.15625 
L 550.690625 257.55625 
L 534.690625 257.55625 
z
" style="fill: url(#h7f8495f1d2); stroke: #000000; stroke-linejoin: miter"/>
    </g>
    <g id="text_29">
     <!-- En achetait, mais plus maintenant -->
     <g transform="translate(557.090625 263.15625) scale(0.08 -0.08)">
      <defs>
       <path id="DejaVuSerif-28" d="M 353 0 
L 353 331 
L 947 331 
L 947 4331 
L 353 4331 
L 353 4666 
L 4109 4666 
L 4109 3628 
L 3725 3628 
L 3725 4281 
L 1581 4281 
L 1581 2719 
L 3109 2719 
L 3109 3303 
L 3494 3303 
L 3494 1753 
L 3109 1753 
L 3109 2338 
L 1581 2338 
L 1581 384 
L 3775 384 
L 3775 1038 
L 4159 1038 
L 4159 0 
L 353 0 
z
" transform="scale(0.015625)"/>
      </defs>
      <use xlink:href="#DejaVuSerif-28"/>
      <use xlink:href="#DejaVuSerif-51" transform="translate(73 0)"/>
      <use xlink:href="#DejaVuSerif-3" transform="translate(137.40625 0)"/>
      <use xlink:href="#DejaVuSerif-44" transform="translate(169.1875 0)"/>
      <use xlink:href="#DejaVuSerif-46" transform="translate(228.8125 0)"/>
      <use xlink:href="#DejaVuSerif-4b" transform="translate(284.8125 0)"/>
      <use xlink:href="#DejaVuSerif-48" transform="translate(349.21875 0)"/>
      <use xlink:href="#DejaVuSerif-57" transform="translate(408.40625 0)"/>
      <use xlink:href="#DejaVuSerif-44" transform="translate(448.59375 0)"/>
      <use xlink:href="#DejaVuSerif-4c" transform="translate(508.21875 0)"/>
      <use xlink:href="#DejaVuSerif-57" transform="translate(540.203125 0)"/>
      <use xlink:href="#DejaVuSerif-f" transform="translate(580.390625 0)"/>
      <use xlink:href="#DejaVuSerif-3" transform="translate(612.171875 0)"/>
      <use xlink:href="#DejaVuSerif-50" transform="translate(643.953125 0)"/>
      <use xlink:href="#DejaVuSerif-44" transform="translate(738.78125 0)"/>
      <use xlink:href="#DejaVuSerif-4c" transform="translate(798.40625 0)"/>
      <use xlink:href="#DejaVuSerif-56" transform="translate(830.390625 0)"/>
      <use xlink:href="#DejaVuSerif-3" transform="translate(881.703125 0)"/>
      <use xlink:href="#DejaVuSerif-53" transform="translate(913.484375 0)"/>
      <use xlink:href="#DejaVuSerif-4f" transform="translate(977.5 0)"/>
      <use xlink:href="#DejaVuSerif-58" transform="translate(1009.484375 0)"/>
      <use xlink:href="#DejaVuSerif-56" transform="translate(1073.890625 0)"/>
      <use xlink:href="#DejaVuSerif-3" transform="translate(1125.203125 0)"/>
      <use xlink:href="#DejaVuSerif-50" transform="translate(1156.984375 0)"/>
      <use xlink:href="#DejaVuSerif-44" transform="translate(1251.8125 0)"/>
      <use xlink:href="#DejaVuSerif-4c" transform="translate(1311.4375 0)"/>
      <use xlink:href="#DejaVuSerif-51" transform="translate(1343.421875 0)"/>
      <use xlink:href="#DejaVuSerif-57" transform="translate(1407.828125 0)"/>
      <use xlink:href="#DejaVuSerif-48" transform="translate(1448.015625 0)"/>
      <use xlink:href="#DejaVuSerif-51" transform="translate(1507.203125 0)"/>
      <use xlink:href="#DejaVuSerif-44" transform="translate(1571.609375 0)"/>
      <use xlink:href="#DejaVuSerif-51" transform="translate(1631.234375 0)"/>
      <use xlink:href="#DejaVuSerif-57" transform="translate(1695.640625 0)"/>
     </g>
    </g>
   </g>
  </g>
 </g>
 <defs>
  <clipPath id="pb8791a7206">
   <rect x="204.234375" y="22.798125" width="502.2" height="249.48"/>
  </clipPath>
 </defs>
 <defs>
  <pattern id="h7f8495f1d2" patternUnits="userSpaceOnUse" x="0" y="0" width="72" height="72">
   <rect x="0" y="0" width="73" height="73" fill="#ffffff"/>
   <path d="M -36 36 
L 36 -36 
M -33 39 
L 39 -33 
M -30 42 
L 42 -30 
M -27 45 
L 45 -27 
M -24 48 
L 48 -24 
M -21 51 
L 51 -21 
M -18 54 
L 54 -18 
M -15 57 
L 57 -15 
M -12 60 
L 60 -12 
M -9 63 
L 63 -9 
M -6 66 
L 66 -6 
M -3 69 
L 69 -3 
M 0 72 
L 72 0 
M 3 75 
L 75 3 
M 6 78 
L 78 6 
M 9 81 
L 81 9 
M 12 84 
L 84 12 
M 15 87 
L 87 15 
M 18 90 
L 90 18 
M 21 93 
L 93 21 
M 24 96 
L 96 24 
M 27 99 
L 99 27 
M 30 102 
L 102 30 
M 33 105 
L 105 33 
M 36 108 
L 108 36 
" style="fill: #000000; stroke: #000000; stroke-width: 1.0; stroke-linecap: butt; stroke-linejoin: miter"/>
  </pattern>
 </defs>
</svg>
